<?xml version="1.0" encoding="UTF-8"?>
<svg id="Layer_2" xmlns="http://www.w3.org/2000/svg" viewBox="0 0 64.12 47.76">
  <defs>
    <style>
      .cls-1 {
        fill: #5981c1;
      }

      .cls-1, .cls-2, .cls-3 {
        stroke: #4766b0;
        stroke-linecap: round;
        stroke-linejoin: round;
        stroke-width: 3px;
      }

      .cls-2 {
        fill: none;
      }

      .cls-3 {
        fill: #8caedc;
      }

      .cls-4 {
        fill: #4766b0;
      }
    </style>
  </defs>
  <g id="Layer_1-2" data-name="Layer_1">
    <g>
      <path class="cls-3" d="M50.25,17.98c-.91-9.24-8.72-16.48-18.19-16.48S14.77,8.74,13.86,17.98c-6.97.9-12.36,6.87-12.36,14.08,0,7.83,6.37,14.2,14.2,14.2h32.72c7.83,0,14.2-6.37,14.2-14.2,0-7.21-5.4-13.18-12.36-14.08Z"/>
      <g>
        <rect class="cls-1" x="21.77" y="22.77" width="20.59" height="17.04" rx="3.19" ry="3.19"/>
        <path class="cls-4" d="M34.4,30.12c0-1.29-1.05-2.34-2.34-2.34s-2.34,1.05-2.34,2.34c0,.75.36,1.4.9,1.83l-.43,4.07c0,.09.02.18.08.24.06.07.14.1.23.1h3.13s0,0,.01,0c.17,0,.31-.14.31-.31,0-.04,0-.08-.02-.12l-.42-3.99c.54-.43.9-1.09.9-1.83Z"/>
        <path class="cls-2" d="M40.87,22.77c0-4.87-3.95-8.81-8.81-8.81s-8.81,3.95-8.81,8.81h17.62Z"/>
      </g>
    </g>
  </g>
</svg>